<svg width="680" height="711" viewBox="0 0 680 711" fill="none" xmlns="http://www.w3.org/2000/svg">
<path d="M204.295 290.347C219.191 154.471 330.958 55.2505 453.933 68.7324C576.907 82.2143 664.523 203.293 649.626 339.169C634.73 475.046 522.963 574.266 399.988 560.784C277.013 547.302 189.398 426.224 204.295 290.347Z" fill="#FEFCF8" fill-opacity="0.1"/>
<path d="M98.3645 348.147C113.802 207.33 246.926 106.397 395.703 122.708C544.481 139.019 652.574 266.396 637.136 407.213C621.699 548.031 488.575 648.963 339.798 632.653C191.02 616.342 82.9266 488.964 98.3645 348.147Z" fill="#FEFCF8" fill-opacity="0.1"/>
<path d="M48.5276 311.826C73.9597 141.063 224.959 22.0515 385.793 46.005C546.628 69.9586 656.393 227.807 630.961 398.569C605.529 569.332 454.53 688.344 293.695 664.39C132.861 640.436 23.0955 482.588 48.5276 311.826Z" fill="#FEFCF8" fill-opacity="0.1"/>
</svg>
