<svg width="680" height="711" viewBox="0 0 680 711" fill="none" xmlns="http://www.w3.org/2000/svg">
<path d="M475.196 420.047C460.299 555.924 348.533 655.144 225.558 641.662C102.583 628.18 14.9676 507.102 29.8639 371.225C44.7601 235.349 156.527 136.128 279.502 149.61C402.477 163.092 490.092 284.171 475.196 420.047Z" fill="#FEFCF8" fill-opacity="0.1"/>
<path d="M581.126 362.247C565.688 503.065 432.565 603.997 283.787 587.687C135.009 571.376 26.9158 443.999 42.3538 303.181C57.7917 162.364 190.915 61.4314 339.693 77.742C488.47 94.0527 596.564 221.43 581.126 362.247Z" fill="#FEFCF8" fill-opacity="0.1"/>
<path d="M630.963 398.569C605.531 569.331 454.532 688.343 293.697 664.389C132.862 640.436 23.097 482.588 48.5292 311.825C73.9613 141.063 224.96 22.051 385.795 46.0046C546.629 69.9582 656.395 227.807 630.963 398.569Z" fill="#FEFCF8" fill-opacity="0.1"/>
</svg>
