<svg width="21" height="17" viewBox="0 0 21 17" fill="none" xmlns="http://www.w3.org/2000/svg">
<path fill-rule="evenodd" clip-rule="evenodd" d="M9.85425 15.6776C9.85425 15.6776 3.5 11.3454 3.5 7.08268C3.5 5.57979 4.2375 4.13845 5.55025 3.07574C6.86301 2.01304 8.64348 1.41602 10.5 1.41602C12.3565 1.41602 14.137 2.01304 15.4497 3.07574C16.7625 4.13845 17.5 5.57979 17.5 7.08268C17.5 11.3454 11.1458 15.6776 11.1458 15.6776C10.7922 15.9411 10.2104 15.9383 9.85425 15.6776ZM10.5 9.56185C10.9022 9.56185 11.3004 9.49772 11.672 9.37313C12.0435 9.24854 12.3811 9.06593 12.6655 8.83572C12.9499 8.60551 13.1755 8.3322 13.3294 8.03142C13.4833 7.73063 13.5625 7.40825 13.5625 7.08268C13.5625 6.75711 13.4833 6.43473 13.3294 6.13395C13.1755 5.83316 12.9499 5.55986 12.6655 5.32965C12.3811 5.09943 12.0435 4.91682 11.672 4.79223C11.3004 4.66764 10.9022 4.60352 10.5 4.60352C9.68777 4.60352 8.90882 4.86471 8.33449 5.32965C7.76016 5.79458 7.4375 6.42517 7.4375 7.08268C7.4375 7.7402 7.76016 8.37078 8.33449 8.83572C8.90882 9.30065 9.68777 9.56185 10.5 9.56185Z" fill="black" fill-opacity="0.6"/>
</svg>
