<svg width="31" height="25" viewBox="0 0 31 25" fill="none" xmlns="http://www.w3.org/2000/svg">
<path fill-rule="evenodd" clip-rule="evenodd" d="M25.8336 3.33341H5.16689C4.89284 3.33341 4.63001 3.42121 4.43622 3.57749C4.24243 3.73377 4.13356 3.94573 4.13356 4.16675V20.8334C4.13356 21.0544 4.24243 21.2664 4.43622 21.4227C4.63001 21.579 4.89284 21.6667 5.16689 21.6667H25.8336C26.1076 21.6667 26.3705 21.579 26.5642 21.4227C26.758 21.2664 26.8669 21.0544 26.8669 20.8334V4.16675C26.8669 3.94573 26.758 3.73377 26.5642 3.57749C26.3705 3.42121 26.1076 3.33341 25.8336 3.33341ZM5.16689 1.66675C4.34472 1.66675 3.55623 1.93014 2.97486 2.39898C2.3935 2.86782 2.06689 3.50371 2.06689 4.16675V20.8334C2.06689 21.4965 2.3935 22.1323 2.97486 22.6012C3.55623 23.07 4.34472 23.3334 5.16689 23.3334H25.8336C26.6557 23.3334 27.4442 23.07 28.0256 22.6012C28.607 22.1323 28.9336 21.4965 28.9336 20.8334V4.16675C28.9336 3.50371 28.607 2.86782 28.0256 2.39898C27.4442 1.93014 26.6557 1.66675 25.8336 1.66675H5.16689Z" fill="#AB0508" fill-opacity="0.9"/>
</svg>
