<svg width="680" height="711" viewBox="0 0 680 711" fill="none" xmlns="http://www.w3.org/2000/svg">
<path d="M475.197 420.047C460.3 555.924 348.534 655.144 225.559 641.662C102.584 628.18 14.9686 507.102 29.8649 371.225C44.7611 235.349 156.528 136.128 279.503 149.61C402.478 163.092 490.093 284.171 475.197 420.047Z" fill="#FEFCF8" fill-opacity="0.1"/>
<path d="M581.127 362.247C565.689 503.065 432.566 603.997 283.788 587.687C135.01 571.376 26.9168 443.999 42.3548 303.181C57.7927 162.364 190.916 61.4314 339.694 77.742C488.471 94.0527 596.565 221.43 581.127 362.247Z" fill="#FEFCF8" fill-opacity="0.1"/>
<path d="M630.963 398.569C605.531 569.331 454.532 688.343 293.697 664.389C132.862 640.436 23.097 482.588 48.5292 311.825C73.9613 141.063 224.96 22.051 385.795 46.0046C546.629 69.9582 656.395 227.807 630.963 398.569Z" fill="#FEFCF8" fill-opacity="0.1"/>
</svg>
