<svg width="65" height="51" viewBox="0 0 65 51" fill="none" xmlns="http://www.w3.org/2000/svg">
<path fill-rule="evenodd" clip-rule="evenodd" d="M44 18.6237C44 21.0548 42.7884 23.3864 40.6317 25.1055C38.4751 26.8246 35.55 27.7904 32.5 27.7904C29.45 27.7904 26.5249 26.8246 24.3683 25.1055C22.2116 23.3864 21 21.0548 21 18.6237C21 16.1925 22.2116 13.861 24.3683 12.1419C26.5249 10.4228 29.45 9.45703 32.5 9.45703C35.55 9.45703 38.4751 10.4228 40.6317 12.1419C42.7884 13.861 44 16.1925 44 18.6237ZM38.25 18.6237C38.25 19.8393 37.6442 21.0051 36.5659 21.8646C35.4875 22.7241 34.025 23.207 32.5 23.207C30.975 23.207 29.5125 22.7241 28.4341 21.8646C27.3558 21.0051 26.75 19.8393 26.75 18.6237C26.75 17.4081 27.3558 16.2423 28.4341 15.3828C29.5125 14.5233 30.975 14.0404 32.5 14.0404C34.025 14.0404 35.4875 14.5233 36.5659 15.3828C37.6442 16.2423 38.25 17.4081 38.25 18.6237Z" fill="#EDD6D6"/>
<path fill-rule="evenodd" clip-rule="evenodd" d="M32.5 0.291016C15.0344 0.291016 0.875 11.5775 0.875 25.4993C0.875 39.4212 15.0344 50.7077 32.5 50.7077C49.9656 50.7077 64.125 39.4212 64.125 25.4993C64.125 11.5775 49.9656 0.291016 32.5 0.291016ZM6.625 25.4993C6.625 30.2889 8.67487 34.6981 12.1105 38.1998C14.5239 35.6746 17.6367 33.6282 21.206 32.2202C24.7752 30.8122 28.7044 30.0806 32.6869 30.0827C36.6181 30.079 40.4984 30.791 44.032 32.1644C47.5656 33.5377 50.659 35.5362 53.0764 38.0073C55.5674 35.403 57.2447 32.3634 57.9693 29.1399C58.694 25.9163 58.4452 22.6016 57.2437 19.4699C56.0421 16.3383 53.9223 13.4797 51.0595 11.1307C48.1968 8.7817 44.6735 7.00986 40.7811 5.96176C36.8887 4.91367 32.7392 4.61945 28.6758 5.10345C24.6125 5.58746 20.7521 6.83577 17.4142 8.7451C14.0763 10.6544 11.3567 13.1699 9.48053 16.0833C7.60436 18.9968 6.62552 22.2245 6.625 25.4993ZM32.5 46.1243C26.56 46.132 20.7992 44.5031 16.193 41.5135C18.0468 39.3974 20.5147 37.6697 23.3865 36.4775C26.2583 35.2852 29.4489 34.6638 32.6869 34.666C35.8844 34.6638 39.0364 35.2698 41.8811 36.4336C44.7258 37.5974 47.181 39.2855 49.0427 41.3577C44.401 44.4446 38.5451 46.1319 32.5 46.1243Z" fill="#EDD6D6"/>
</svg>
