<svg width="680" height="711" viewBox="0 0 680 711" fill="none" xmlns="http://www.w3.org/2000/svg">
<path d="M475.197 420.048C460.3 555.924 348.534 655.144 225.559 641.663C102.584 628.181 14.9686 507.102 29.8649 371.226C44.7611 235.349 156.528 136.129 279.503 149.611C402.478 163.093 490.093 284.171 475.197 420.048Z" fill="#FEFCF8" fill-opacity="0.1"/>
<path d="M581.126 362.247C565.688 503.065 432.565 603.997 283.787 587.687C135.01 571.376 26.9163 443.999 42.3543 303.181C57.7922 162.364 190.915 61.4314 339.693 77.742C488.471 94.0527 596.564 221.43 581.126 362.247Z" fill="#FEFCF8" fill-opacity="0.1"/>
<path d="M630.962 398.569C605.53 569.331 454.531 688.343 293.696 664.389C132.862 640.436 23.0966 482.588 48.5287 311.825C73.9608 141.063 224.96 22.051 385.794 46.0046C546.629 69.9582 656.394 227.807 630.962 398.569Z" fill="#FEFCF8" fill-opacity="0.1"/>
</svg>
