<svg width="685" height="755" viewBox="0 0 685 755" fill="none" xmlns="http://www.w3.org/2000/svg">
<path d="M189.599 380.979C204.495 245.103 316.262 145.882 439.237 159.364C562.212 172.846 649.827 293.925 634.931 429.801C620.034 565.678 508.268 664.898 385.293 651.416C262.318 637.934 174.703 516.855 189.599 380.979Z" fill="#FEFCF8" fill-opacity="0.1"/>
<path d="M83.6687 438.779C99.1067 297.962 232.23 197.03 381.008 213.34C529.785 229.651 637.879 357.028 622.441 497.846C607.003 638.663 473.88 739.595 325.102 723.285C176.324 706.974 68.2308 579.597 83.6687 438.779Z" fill="#FEFCF8" fill-opacity="0.1"/>
<path d="M53.3533 311.825C78.7854 141.063 229.784 22.051 390.619 46.0046C551.454 69.9581 661.219 227.807 635.787 398.569C610.355 569.331 459.356 688.343 298.521 664.389C137.686 640.436 27.9211 482.587 53.3533 311.825Z" fill="#FEFCF8" fill-opacity="0.1"/>
</svg>
