<svg width="65" height="51" viewBox="0 0 65 51" fill="none" xmlns="http://www.w3.org/2000/svg">
<path fill-rule="evenodd" clip-rule="evenodd" d="M44 18.6247C44 21.0558 42.7884 23.3874 40.6317 25.1065C38.4751 26.8256 35.55 27.7913 32.5 27.7913C29.45 27.7913 26.5249 26.8256 24.3683 25.1065C22.2116 23.3874 21 21.0558 21 18.6247C21 16.1935 22.2116 13.8619 24.3683 12.1429C26.5249 10.4238 29.45 9.45801 32.5 9.45801C35.55 9.45801 38.4751 10.4238 40.6317 12.1429C42.7884 13.8619 44 16.1935 44 18.6247ZM38.25 18.6247C38.25 19.8403 37.6442 21.006 36.5659 21.8656C35.4875 22.7251 34.025 23.208 32.5 23.208C30.975 23.208 29.5125 22.7251 28.4341 21.8656C27.3558 21.006 26.75 19.8403 26.75 18.6247C26.75 17.4091 27.3558 16.2433 28.4341 15.3838C29.5125 14.5242 30.975 14.0413 32.5 14.0413C34.025 14.0413 35.4875 14.5242 36.5659 15.3838C37.6442 16.2433 38.25 17.4091 38.25 18.6247Z" fill="#EDD6D6"/>
<path fill-rule="evenodd" clip-rule="evenodd" d="M32.5 0.291504C15.0344 0.291504 0.875 11.578 0.875 25.4998C0.875 39.4217 15.0344 50.7082 32.5 50.7082C49.9656 50.7082 64.125 39.4217 64.125 25.4998C64.125 11.578 49.9656 0.291504 32.5 0.291504ZM6.625 25.4998C6.625 30.2894 8.67487 34.6986 12.1105 38.2003C14.5239 35.6751 17.6367 33.6287 21.206 32.2207C24.7752 30.8126 28.7044 30.0811 32.6869 30.0832C36.6181 30.0795 40.4984 30.7915 44.032 32.1649C47.5656 33.5382 50.659 35.5366 53.0764 38.0078C55.5674 35.4035 57.2447 32.3639 57.9693 29.1404C58.694 25.9168 58.4452 22.6021 57.2437 19.4704C56.0421 16.3387 53.9223 13.4802 51.0595 11.1312C48.1968 8.78219 44.6735 7.01035 40.7811 5.96225C36.8887 4.91416 32.7392 4.61994 28.6758 5.10394C24.6125 5.58794 20.7521 6.83625 17.4142 8.74558C14.0763 10.6549 11.3567 13.1704 9.48053 16.0838C7.60436 18.9973 6.62552 22.225 6.625 25.4998ZM32.5 46.1248C26.56 46.1325 20.7992 44.5036 16.193 41.514C18.0468 39.3979 20.5147 37.6702 23.3865 36.478C26.2583 35.2857 29.4489 34.6643 32.6869 34.6665C35.8844 34.6643 39.0364 35.2702 41.8811 36.4341C44.7258 37.5979 47.181 39.286 49.0427 41.3582C44.401 44.445 38.5451 46.1324 32.5 46.1248Z" fill="#EDD6D6"/>
</svg>
