<svg width="685" height="748" viewBox="0 0 685 748" fill="none" xmlns="http://www.w3.org/2000/svg">
<path d="M209.72 290.501C224.617 154.625 336.383 55.4043 459.358 68.8862C582.333 82.3681 669.948 203.447 655.052 339.323C640.156 475.2 528.389 574.42 405.414 560.938C282.439 547.456 194.824 426.377 209.72 290.501Z" fill="#AB0508" fill-opacity="0.03"/>
<path d="M103.79 348.301C119.228 207.484 252.351 106.552 401.129 122.862C549.907 139.173 658 266.55 642.562 407.368C627.124 548.185 494.001 649.117 345.223 632.807C196.446 616.496 88.3524 489.119 103.79 348.301Z" fill="#AB0508" fill-opacity="0.03"/>
<path d="M51.2419 330.195C78.1723 149.373 230.386 22.2058 391.22 46.1594C552.055 70.1129 660.606 236.116 633.675 416.939C606.745 597.761 454.531 724.928 293.697 700.974C132.862 677.021 24.3115 511.017 51.2419 330.195Z" fill="#AB0508" fill-opacity="0.03"/>
</svg>
