<svg width="680" height="711" viewBox="0 0 680 711" fill="none" xmlns="http://www.w3.org/2000/svg">
<path d="M204.72 290.501C219.616 154.625 331.383 55.4043 454.358 68.8862C577.333 82.3681 664.948 203.447 650.052 339.323C635.155 475.2 523.389 574.42 400.414 560.938C277.439 547.456 189.824 426.377 204.72 290.501Z" fill="#AB0508" fill-opacity="0.03"/>
<path d="M98.7903 348.301C114.228 207.484 247.351 106.552 396.129 122.862C544.907 139.173 653 266.55 637.562 407.368C622.124 548.185 489.001 649.117 340.223 632.807C191.446 616.496 83.3524 489.119 98.7903 348.301Z" fill="#AB0508" fill-opacity="0.03"/>
<path d="M48.9543 311.98C74.3865 141.218 225.385 22.2058 386.22 46.1593C547.055 70.1129 656.82 227.961 631.388 398.724C605.956 569.486 454.957 688.498 294.122 664.544C133.288 640.591 23.5222 482.742 48.9543 311.98Z" fill="#AB0508" fill-opacity="0.03"/>
</svg>
