<svg width="614" height="685" viewBox="0 0 614 685" fill="none" xmlns="http://www.w3.org/2000/svg">
<path d="M448 410.254C448 546.945 347.712 657.754 224 657.754C100.288 657.754 0 546.945 0 410.254C0 273.564 100.288 162.754 224 162.754C347.712 162.754 448 273.564 448 410.254Z" fill="#AB0508" fill-opacity="0.05"/>
<path d="M547 341.254C547 482.915 425.669 597.754 276 597.754C126.331 597.754 5 482.915 5 341.254C5 199.593 126.331 84.7544 276 84.7544C425.669 84.7544 547 199.593 547 341.254Z" fill="#AB0508" fill-opacity="0.05"/>
<path d="M601.209 353.526C594.144 536.206 456.696 679.204 294.209 672.92C131.722 666.637 5.72655 513.452 12.7909 330.772C19.8552 148.091 157.304 5.09376 319.791 11.3772C482.278 17.6607 608.273 170.846 601.209 353.526Z" fill="#AB0508" fill-opacity="0.05"/>
</svg>
